# xmcd
#
# Track frame offsets: 
#        150
#        24600
#        55472
#        77757
#        94992
#        113700
#        138240
#        156142
#
# Disc length: 2411 seconds
#
# Revision: 0
# Processed by: cddbd v1.5.2PL0 Copyright (c) Steve Scherf et al.
# Submitted via: ExactAudioCopy v0.99pb4
#
DISCID=63096908
DTITLE=Positive Express - Changin' Times
DYEAR=1982
DGENRE=Soul
TTITLE0=Not On The Outside
TTITLE1=Love Injection
TTITLE2=Time Is Changing
TTITLE3=Welcome To The Party
TTITLE4=A Special Love Song
TTITLE5=Do Me
TTITLE6=It's A Shame
TTITLE7=Ready For Your Love
EXTD=
EXTT0=
EXTT1=
EXTT2=
EXTT3=
EXTT4=
EXTT5=
EXTT6=
EXTT7=
PLAYORDER=
